<svg xmlns="http://www.w3.org/2000/svg"  viewBox="0 0 468 468" width="58px" height="58px"><path d="M 118.93164 32.003906 C 68.240412 32.366344 12.970313 66.727344 17.744141 143.13867 C 19.839141 179.06867 32.746125 191.12262 54.078125 199.76562 C 57.485125 217.17363 67.411266 232.28441 81.197266 242.44141 L 81.197266 255.35938 C 35.110266 263.85137 -0.77132812 307.50584 0.013671875 354.46484 L 0.013671875 424.01758 C 0.013671875 430.63558 5.3856719 435.99805 12.013672 435.99805 C 18.641672 435.99805 24.013672 430.63458 24.013672 424.01758 L 24.013672 354.46484 C 24.013672 318.55384 48.063406 288.41364 81.691406 279.80664 C 84.789406 299.82564 102.14348 315.20117 123.02148 315.20117 C 143.90048 315.20117 161.25356 299.82469 164.35156 279.80469 C 197.97956 288.41269 222.0293 318.55384 222.0293 354.46484 L 222.0293 423.98047 C 222.0293 430.59847 227.4013 435.96289 234.0293 435.96289 C 240.6563 435.96289 246.0293 430.59747 246.0293 423.98047 L 246.0293 355.39648 C 246.0673 319.27748 271.50844 288.62583 305.89844 280.79883 C 308.32644 300.22483 324.93762 315.30859 345.01562 315.30859 C 365.09463 315.30859 381.70386 300.22483 384.13086 280.79883 C 418.54686 288.63183 444.00195 319.32256 444.00195 355.47656 L 444.00195 423.99609 C 444.00195 430.61409 449.37495 435.97852 456.00195 435.97852 C 462.62895 435.97852 468.00195 430.61309 468.00195 423.99609 L 468.00195 355.47656 C 468.00095 306.26456 432.11627 264.74311 384.44727 256.41211 L 384.44727 242.80273 C 396.32127 231.59773 403.79297 215.42098 403.79297 197.45898 L 403.79297 155.48828 C 402.43297 138.19428 385.45927 128.99539 377.44727 128.52539 C 373.13127 127.98439 368.85634 129.81155 366.27734 133.31055 C 353.07534 151.22355 332.68142 155.32556 317.85742 155.60156 L 298.23438 155.60156 C 291.78638 155.47456 286.10337 161.14989 286.23438 167.58789 L 286.24805 197.45703 C 286.24805 215.41103 293.71408 231.58406 305.58008 242.78906 L 305.58008 256.41797 C 292.30208 258.74297 279.93772 263.6365 269.01172 270.5625 L 269.01172 156.25977 C 267.81772 143.86377 274.14117 106.68531 298.32617 108.44531 C 304.83017 108.27631 310.01562 102.9628 310.01562 96.466797 C 309.96762 87.270797 317.87328 81.431484 326.48828 81.771484 C 326.91528 81.693484 369.54186 74.134641 396.88086 97.181641 C 413.35586 111.06964 421.47748 133.86097 421.02148 164.91797 C 421.02048 164.97697 421.02148 165.03475 421.02148 165.09375 L 421.02148 194.69922 C 421.02148 201.31722 426.39448 206.68164 433.02148 206.68164 C 439.64848 206.68164 445.02148 201.31622 445.02148 194.69922 L 445.02148 165.17773 C 445.57048 126.54973 434.53284 97.468141 412.21484 78.744141 C 378.50484 50.462141 331.20239 56.712297 323.15039 58.029297 C 306.27539 58.520297 292.10773 70.048063 287.55273 85.664062 C 252.02873 90.323063 242.90067 143.96289 245.01367 156.46289 L 245.01367 291.73633 C 241.00167 296.60133 237.43772 301.84153 234.38672 307.39453 C 220.60072 280.78453 194.13875 261.02133 164.84375 255.36133 L 164.84375 241.44141 C 178.12375 231.16541 187.60253 216.20559 190.76953 199.05859 C 246.54953 184.14659 237.66334 75.897609 179.52734 63.099609 C 174.96634 46.991609 160.46502 35.064484 143.16602 34.521484 C 135.39944 32.795313 127.22657 31.944598 118.93164 32.003906 z M 119.2793 56.167969 C 126.31284 56.127394 133.1575 56.851094 139.48047 58.214844 C 148.63947 57.915844 157.07448 64.021438 157.02148 73.898438 C 157.02148 80.394437 162.20403 85.707953 168.70703 85.876953 C 203.38903 83.658953 215.13273 155.67289 191.92773 171.96289 L 191.92773 147.54297 C 191.92773 144.39897 190.69042 141.38162 188.48242 139.14062 L 153.93164 104.07031 C 149.33564 99.206312 140.89214 99.368969 136.49414 104.41797 C 118.16614 124.69897 91.637187 135.5778 64.617188 134.8418 C 58.055188 134.9318 52.78125 140.26827 52.78125 146.82227 L 52.78125 172.18555 C 45.65925 166.22055 41.940187 156.34511 41.742188 142.78711 C 37.846594 78.858703 81.298148 56.387074 119.2793 56.167969 z M 145.24023 129.41992 L 167.92773 152.44727 L 167.92773 186.4082 C 167.92873 211.5552 147.48156 232.01562 122.35156 232.01562 C 97.288562 232.01562 76.84625 211.60955 76.78125 186.56055 L 76.78125 158.42773 C 102.05225 156.52573 126.19723 146.25592 145.24023 129.41992 z M 378.95508 155.39062 C 379.27708 155.88262 379.56297 156.44952 379.79297 157.10352 L 379.79297 197.46094 C 379.79297 217.99094 364.19548 234.69336 345.02148 234.69336 C 325.84748 234.69336 310.24805 217.98913 310.24805 197.45312 L 310.24023 179.56641 L 317.9668 179.56641 C 343.0608 179.18741 364.01008 170.85262 378.95508 155.39062 z M 431.99023 222.93359 A 14 13.979 0 1 0 431.99023 250.89258 A 14 13.979 0 1 0 431.99023 222.93359 z M 140.84375 253.46484 L 140.84375 273.39062 C 140.84375 283.23163 132.84948 291.23633 123.02148 291.23633 C 113.19348 291.23633 105.19727 283.23163 105.19727 273.39062 L 105.19727 253.83008 C 116.53927 256.80408 129.59475 256.66084 140.84375 253.46484 z M 329.58008 256.49805 C 339.34308 259.35605 350.68327 259.35695 360.44727 256.50195 L 360.44727 275.88672 C 360.44727 284.41172 353.52367 291.3457 345.01367 291.3457 C 336.50267 291.3457 329.58008 284.41072 329.58008 275.88672 L 329.58008 256.49805 z"/></svg>