<svg xmlns="http://www.w3.org/2000/svg"  viewBox="0 0 64 64" width="64px" height="64px"><path d="m 24.666,11.983 a 6.966,6.966 0 0 0 3.785,3.532 0.94,0.94 0 0 1 0.549,0.893 v 2.776 A 3,3 0 0 0 27,22 v 1 a 1,1 0 0 0 1,1 h 8 a 1,1 0 0 0 1,-1 V 22 A 3,3 0 0 0 35,19.184 V 16.408 A 0.94,0.94 0 0 1 35.549,15.515 6.966,6.966 0 0 0 39.334,11.983 7,7 0 0 0 46,5 3,3 0 0 0 43,2 H 40 V 1 A 1,1 0 0 0 39,0 H 25 a 1,1 0 0 0 -1,1 v 1 h -3 a 3,3 0 0 0 -3,3 7,7 0 0 0 6.666,6.983 z M 29,22 a 1,1 0 0 1 1,-1 h 4 a 1,1 0 0 1 1,1 z M 43,4 A 1,1 0 0 1 44,5 5,5 0 0 1 39.932,9.906 7.141,7.141 0 0 0 40,9 V 4 Z M 26,2 H 38 V 9 A 4.966,4.966 0 0 1 34.82,13.651 2.952,2.952 0 0 0 33,16.408 V 19 H 31 V 16.408 A 2.952,2.952 0 0 0 29.18,13.651 4.966,4.966 0 0 1 26,9 Z m -5,2 h 3 V 9 A 7.141,7.141 0 0 0 24.068,9.906 5,5 0 0 1 20,5 1,1 0 0 1 21,4 Z m 38,52 h -2 v -5 a 1,1 0 0 0 -1,-1 h -7 v -4 h 2 a 3,3 0 0 0 3,-3 V 41 A 3,3 0 0 0 51,38 H 49 V 33 A 1,1 0 0 0 48,32 H 33 v -5 a 1,1 0 0 0 -2,0 v 5 H 16 a 1,1 0 0 0 -1,1 v 5 h -2 a 3,3 0 0 0 -3,3 v 2 a 3,3 0 0 0 3,3 h 2 v 4 H 8 a 1,1 0 0 0 -1,1 v 5 H 5 a 3,3 0 0 0 -3,3 v 2 a 3,3 0 0 0 3,3 h 6 a 3,3 0 0 0 3,-3 V 59 A 3,3 0 0 0 11,56 H 9 v -4 h 14 v 4 h -2 a 3,3 0 0 0 -3,3 v 2 a 3,3 0 0 0 3,3 h 6 a 3,3 0 0 0 3,-3 v -2 a 3,3 0 0 0 -3,-3 h -2 v -5 a 1,1 0 0 0 -1,-1 h -7 v -4 h 2 a 3,3 0 0 0 3,-3 v -2 a 3,3 0 0 0 -3,-3 h -2 v -4 h 30 v 4 h -2 a 3,3 0 0 0 -3,3 v 2 a 3,3 0 0 0 3,3 h 2 v 4 h -7 a 1,1 0 0 0 -1,1 v 5 h -2 a 3,3 0 0 0 -3,3 v 2 a 3,3 0 0 0 3,3 h 6 a 3,3 0 0 0 3,-3 v -2 a 3,3 0 0 0 -3,-3 h -2 v -4 h 14 v 4 h -2 a 3,3 0 0 0 -3,3 v 2 a 3,3 0 0 0 3,3 h 6 a 3,3 0 0 0 3,-3 v -2 a 3,3 0 0 0 -3,-3 z m -47,3 v 2 a 1,1 0 0 1 -1,1 H 5 A 1,1 0 0 1 4,61 v -2 a 1,1 0 0 1 1,-1 h 6 a 1,1 0 0 1 1,1 z m 16,0 v 2 a 1,1 0 0 1 -1,1 h -6 a 1,1 0 0 1 -1,-1 v -2 a 1,1 0 0 1 1,-1 h 6 a 1,1 0 0 1 1,1 z M 20,41 v 2 a 1,1 0 0 1 -1,1 h -6 a 1,1 0 0 1 -1,-1 v -2 a 1,1 0 0 1 1,-1 h 6 a 1,1 0 0 1 1,1 z m 24,2 v -2 a 1,1 0 0 1 1,-1 h 6 a 1,1 0 0 1 1,1 v 2 a 1,1 0 0 1 -1,1 h -6 a 1,1 0 0 1 -1,-1 z m 0,16 v 2 a 1,1 0 0 1 -1,1 h -6 a 1,1 0 0 1 -1,-1 v -2 a 1,1 0 0 1 1,-1 h 6 a 1,1 0 0 1 1,1 z m 16,2 a 1,1 0 0 1 -1,1 h -6 a 1,1 0 0 1 -1,-1 v -2 a 1,1 0 0 1 1,-1 h 6 a 1,1 0 0 1 1,1 z"/></svg>