<?xml version="1.0"?><svg xmlns="http://www.w3.org/2000/svg"  viewBox="0 0 80 80" width="80px" height="80px">    <path d="M 40 7 A 1 1 0 0 0 39 8 A 1 1 0 0 0 40 9 A 1 1 0 0 0 41 8 A 1 1 0 0 0 40 7 z M 35.792969 7.2753906 A 1 1 0 0 0 35.693359 7.2832031 A 1 1 0 0 0 34.832031 8.40625 A 1 1 0 0 0 35.953125 9.265625 A 1 1 0 0 0 36.814453 8.1445312 A 1 1 0 0 0 35.792969 7.2753906 z M 44.136719 7.2773438 A 1 1 0 0 0 43.185547 8.1445312 A 1 1 0 0 0 44.046875 9.2675781 A 1 1 0 0 0 45.167969 8.40625 A 1 1 0 0 0 44.306641 7.2851562 A 1 1 0 0 0 44.136719 7.2773438 z M 31.726562 8.0898438 A 1 1 0 0 0 31.65625 8.0917969 A 1 1 0 0 0 31.458984 8.125 A 1 1 0 0 0 30.751953 9.3496094 A 1 1 0 0 0 31.976562 10.056641 A 1 1 0 0 0 32.683594 8.8320312 A 1 1 0 0 0 31.726562 8.0898438 z M 48.273438 8.0917969 A 1 1 0 0 0 47.316406 8.8320312 A 1 1 0 0 0 48.023438 10.056641 A 1 1 0 0 0 49.248047 9.3496094 A 1 1 0 0 0 48.541016 8.125 A 1 1 0 0 0 48.273438 8.0917969 z M 27.761719 9.4355469 A 1 1 0 0 0 27.371094 9.5117188 A 1 1 0 0 0 26.830078 10.818359 A 1 1 0 0 0 28.136719 11.359375 A 1 1 0 0 0 28.677734 10.052734 A 1 1 0 0 0 27.761719 9.4355469 z M 52.267578 9.4355469 A 1 1 0 0 0 51.322266 10.052734 A 1 1 0 0 0 51.863281 11.357422 A 1 1 0 0 0 53.169922 10.816406 A 1 1 0 0 0 52.628906 9.5097656 A 1 1 0 0 0 52.267578 9.4355469 z M 23.976562 11.287109 A 1 1 0 0 0 23.5 11.421875 A 1 1 0 0 0 23.132812 12.787109 A 1 1 0 0 0 24.5 13.152344 A 1 1 0 0 0 24.865234 11.787109 A 1 1 0 0 0 23.976562 11.287109 z M 55.953125 11.289062 A 1 1 0 0 0 55.132812 11.789062 A 1 1 0 0 0 55.5 13.154297 A 1 1 0 0 0 56.865234 12.789062 A 1 1 0 0 0 56.5 11.421875 A 1 1 0 0 0 55.953125 11.289062 z M 40 12 C 24.547872 12 12 24.547872 12 40 C 12 55.452128 24.547872 68 40 68 C 55.452128 68 68 55.452128 68 40 C 68 24.547872 55.452128 12 40 12 z M 20.537109 13.611328 A 1 1 0 0 0 20.464844 13.613281 A 1 1 0 0 0 19.912109 13.818359 A 1 1 0 0 0 19.726562 15.220703 A 1 1 0 0 0 21.128906 15.404297 A 1 1 0 0 0 21.314453 14.001953 A 1 1 0 0 0 20.537109 13.611328 z M 59.462891 13.611328 A 1 1 0 0 0 58.685547 14.001953 A 1 1 0 0 0 58.871094 15.404297 A 1 1 0 0 0 60.273438 15.21875 A 1 1 0 0 0 60.087891 13.816406 A 1 1 0 0 0 59.462891 13.611328 z M 40 14 C 54.371248 14 66 25.628752 66 40 C 66 54.371248 54.371248 66 40 66 C 25.628752 66 14 54.371248 14 40 C 14 25.628752 25.628752 14 40 14 z M 17.386719 16.373047 A 1 1 0 0 0 16.666016 16.666016 A 1 1 0 0 0 16.666016 18.080078 A 1 1 0 0 0 18.080078 18.080078 A 1 1 0 0 0 18.080078 16.666016 A 1 1 0 0 0 17.386719 16.373047 z M 62.642578 16.373047 A 1 1 0 0 0 61.919922 16.666016 A 1 1 0 0 0 61.919922 18.080078 A 1 1 0 0 0 63.333984 18.080078 A 1 1 0 0 0 63.333984 16.666016 A 1 1 0 0 0 62.642578 16.373047 z M 65.333984 19.517578 A 1 1 0 0 0 64.779297 19.724609 A 1 1 0 0 0 64.59375 21.125 A 1 1 0 0 0 65.996094 21.310547 A 1 1 0 0 0 66.181641 19.908203 A 1 1 0 0 0 65.433594 19.517578 A 1 1 0 0 0 65.333984 19.517578 z M 14.597656 19.519531 A 1 1 0 0 0 13.820312 19.910156 A 1 1 0 0 0 14.005859 21.3125 A 1 1 0 0 0 15.408203 21.126953 A 1 1 0 0 0 15.222656 19.724609 A 1 1 0 0 0 14.597656 19.519531 z M 67.6875 23 A 1 1 0 0 0 67.210938 23.132812 A 1 1 0 0 0 66.845703 24.498047 A 1 1 0 0 0 68.210938 24.865234 A 1 1 0 0 0 68.576172 23.498047 A 1 1 0 0 0 67.6875 23 z M 12.240234 23.001953 A 1 1 0 0 0 11.421875 23.5 A 1 1 0 0 0 11.787109 24.865234 A 1 1 0 0 0 13.152344 24.5 A 1 1 0 0 0 12.787109 23.134766 A 1 1 0 0 0 12.240234 23.001953 z M 40 24 C 31.515693 24 24.571475 30.644534 24.050781 39 L 19 39 L 25.5 45.5 L 32 39 L 27.050781 39 C 27.564376 32.298648 33.169331 27 40 27 C 43.838 27 47.283062 28.681938 49.664062 31.335938 L 51.783203 29.216797 C 48.856203 26.019797 44.665 24 40 24 z M 69.572266 26.751953 A 1 1 0 0 0 69.181641 26.828125 A 1 1 0 0 0 68.640625 28.134766 A 1 1 0 0 0 69.947266 28.675781 A 1 1 0 0 0 70.488281 27.369141 A 1 1 0 0 0 69.572266 26.751953 z M 10.457031 26.753906 A 1 1 0 0 0 9.5117188 27.371094 A 1 1 0 0 0 10.052734 28.677734 A 1 1 0 0 0 11.359375 28.136719 A 1 1 0 0 0 10.818359 26.830078 A 1 1 0 0 0 10.457031 26.753906 z M 9.0800781 30.71875 A 1 1 0 0 0 8.1230469 31.458984 A 1 1 0 0 0 8.8300781 32.685547 A 1 1 0 0 0 10.054688 31.978516 A 1 1 0 0 0 9.3476562 30.751953 A 1 1 0 0 0 9.0800781 30.71875 z M 70.917969 30.71875 A 1 1 0 0 0 70.847656 30.720703 A 1 1 0 0 0 70.650391 30.753906 A 1 1 0 0 0 69.943359 31.978516 A 1 1 0 0 0 71.167969 32.685547 A 1 1 0 0 0 71.875 31.460938 A 1 1 0 0 0 70.917969 30.71875 z M 54.5 34.5 L 48 41 L 52.949219 41 C 52.435624 47.701352 46.830669 53 40 53 C 36.162 53 32.716938 51.318062 30.335938 48.664062 L 28.216797 50.783203 C 31.143797 53.980203 35.335 56 40 56 C 48.484307 56 55.428525 49.355466 55.949219 41 L 61 41 L 54.5 34.5 z M 8.2324219 34.826172 A 1 1 0 0 0 7.28125 35.693359 A 1 1 0 0 0 8.140625 36.816406 A 1 1 0 0 0 9.2636719 35.955078 A 1 1 0 0 0 8.4023438 34.833984 A 1 1 0 0 0 8.2324219 34.826172 z M 71.693359 34.826172 A 1 1 0 0 0 71.59375 34.833984 A 1 1 0 0 0 70.734375 35.955078 A 1 1 0 0 0 71.855469 36.816406 A 1 1 0 0 0 72.716797 35.695312 A 1 1 0 0 0 71.693359 34.826172 z M 8 39 A 1 1 0 0 0 7 40 A 1 1 0 0 0 8 41 A 1 1 0 0 0 9 40 A 1 1 0 0 0 8 39 z M 72 39 A 1 1 0 0 0 71 40 A 1 1 0 0 0 72 41 A 1 1 0 0 0 73 40 A 1 1 0 0 0 72 39 z M 8.2421875 43.177734 A 1 1 0 0 0 8.1425781 43.185547 A 1 1 0 0 0 7.28125 44.308594 A 1 1 0 0 0 8.4042969 45.167969 A 1 1 0 0 0 9.2636719 44.046875 A 1 1 0 0 0 8.2421875 43.177734 z M 71.685547 43.181641 A 1 1 0 0 0 70.732422 44.050781 A 1 1 0 0 0 71.59375 45.173828 A 1 1 0 0 0 72.716797 44.3125 A 1 1 0 0 0 71.855469 43.189453 A 1 1 0 0 0 71.685547 43.181641 z M 9.1269531 47.283203 A 1 1 0 0 0 8.8300781 47.316406 A 1 1 0 0 0 8.1230469 48.541016 A 1 1 0 0 0 9.3476562 49.248047 A 1 1 0 0 0 10.054688 48.023438 A 1 1 0 0 0 9.1269531 47.283203 z M 70.898438 47.283203 A 1 1 0 0 0 69.941406 48.025391 A 1 1 0 0 0 70.648438 49.25 A 1 1 0 0 0 71.873047 48.542969 A 1 1 0 0 0 71.166016 47.318359 A 1 1 0 0 0 70.898438 47.283203 z M 69.585938 51.244141 A 1 1 0 0 0 68.640625 51.861328 A 1 1 0 0 0 69.181641 53.167969 A 1 1 0 0 0 70.488281 52.626953 A 1 1 0 0 0 69.947266 51.320312 A 1 1 0 0 0 69.585938 51.244141 z M 10.445312 51.246094 A 1 1 0 0 0 10.054688 51.322266 A 1 1 0 0 0 9.5136719 52.628906 A 1 1 0 0 0 10.820312 53.169922 A 1 1 0 0 0 11.361328 51.863281 A 1 1 0 0 0 10.445312 51.246094 z M 12.263672 54.998047 A 1 1 0 0 0 11.787109 55.132812 A 1 1 0 0 0 11.419922 56.498047 A 1 1 0 0 0 12.787109 56.865234 A 1 1 0 0 0 13.152344 55.498047 A 1 1 0 0 0 12.263672 54.998047 z M 67.664062 55.003906 A 1 1 0 0 0 66.845703 55.501953 A 1 1 0 0 0 67.210938 56.867188 A 1 1 0 0 0 68.578125 56.501953 A 1 1 0 0 0 68.210938 55.136719 A 1 1 0 0 0 67.664062 55.003906 z M 65.371094 58.476562 A 1 1 0 0 0 64.595703 58.867188 A 1 1 0 0 0 64.779297 60.269531 A 1 1 0 0 0 66.181641 60.085938 A 1 1 0 0 0 65.996094 58.683594 A 1 1 0 0 0 65.371094 58.476562 z M 14.630859 58.478516 A 1 1 0 0 0 14.560547 58.480469 A 1 1 0 0 0 14.005859 58.685547 A 1 1 0 0 0 13.820312 60.087891 A 1 1 0 0 0 15.222656 60.271484 A 1 1 0 0 0 15.408203 58.869141 A 1 1 0 0 0 14.630859 58.478516 z M 17.386719 61.626953 A 1 1 0 0 0 16.664062 61.919922 A 1 1 0 0 0 16.664062 63.333984 A 1 1 0 0 0 18.080078 63.333984 A 1 1 0 0 0 18.078125 61.919922 A 1 1 0 0 0 17.386719 61.626953 z M 62.640625 61.626953 A 1 1 0 0 0 61.919922 61.919922 A 1 1 0 0 0 61.919922 63.333984 A 1 1 0 0 0 63.333984 63.333984 A 1 1 0 0 0 63.333984 61.919922 A 1 1 0 0 0 62.640625 61.626953 z M 59.498047 64.382812 A 1 1 0 0 0 59.427734 64.384766 A 1 1 0 0 0 58.873047 64.589844 A 1 1 0 0 0 58.6875 65.992188 A 1 1 0 0 0 60.089844 66.177734 A 1 1 0 0 0 60.275391 64.775391 A 1 1 0 0 0 59.498047 64.382812 z M 20.505859 64.384766 A 1 1 0 0 0 19.728516 64.775391 A 1 1 0 0 0 19.914062 66.177734 A 1 1 0 0 0 21.314453 65.994141 A 1 1 0 0 0 21.130859 64.591797 A 1 1 0 0 0 20.505859 64.384766 z M 55.974609 66.710938 A 1 1 0 0 0 55.498047 66.845703 A 1 1 0 0 0 55.132812 68.210938 A 1 1 0 0 0 56.498047 68.578125 A 1 1 0 0 0 56.865234 67.210938 A 1 1 0 0 0 55.974609 66.710938 z M 23.951172 66.714844 A 1 1 0 0 0 23.132812 67.214844 A 1 1 0 0 0 23.498047 68.580078 A 1 1 0 0 0 24.865234 68.214844 A 1 1 0 0 0 24.498047 66.847656 A 1 1 0 0 0 23.951172 66.714844 z M 52.253906 68.5625 A 1 1 0 0 0 51.863281 68.638672 A 1 1 0 0 0 51.322266 69.945312 A 1 1 0 0 0 52.628906 70.486328 A 1 1 0 0 0 53.169922 69.179688 A 1 1 0 0 0 52.253906 68.5625 z M 27.777344 68.564453 A 1 1 0 0 0 26.830078 69.181641 A 1 1 0 0 0 27.373047 70.486328 A 1 1 0 0 0 28.679688 69.945312 A 1 1 0 0 0 28.136719 68.638672 A 1 1 0 0 0 27.777344 68.564453 z M 31.708984 69.910156 A 1 1 0 0 0 30.751953 70.652344 A 1 1 0 0 0 31.458984 71.876953 A 1 1 0 0 0 32.683594 71.169922 A 1 1 0 0 0 31.976562 69.945312 A 1 1 0 0 0 31.708984 69.910156 z M 48.318359 69.912109 A 1 1 0 0 0 48.021484 69.945312 A 1 1 0 0 0 47.314453 71.169922 A 1 1 0 0 0 48.539062 71.876953 A 1 1 0 0 0 49.246094 70.652344 A 1 1 0 0 0 48.318359 69.912109 z M 44.144531 70.728516 A 1 1 0 0 0 44.044922 70.736328 A 1 1 0 0 0 43.183594 71.857422 A 1 1 0 0 0 44.306641 72.71875 A 1 1 0 0 0 45.166016 71.597656 A 1 1 0 0 0 44.144531 70.728516 z M 35.779297 70.730469 A 1 1 0 0 0 34.828125 71.599609 A 1 1 0 0 0 35.689453 72.722656 A 1 1 0 0 0 36.810547 71.861328 A 1 1 0 0 0 35.951172 70.738281 A 1 1 0 0 0 35.779297 70.730469 z M 40 71 A 1 1 0 0 0 39 72 A 1 1 0 0 0 40 73 A 1 1 0 0 0 41 72 A 1 1 0 0 0 40 71 z"/></svg>