<svg xmlns="http://www.w3.org/2000/svg"  viewBox="0 0 512 512" width="512px" height="512px"><path d="M 76 64 A 28.031 28.031 0 0 0 48 92 L 48 368 L 16 368 A 8 8 0 0 0 8 376 L 8 420 A 28.031 28.031 0 0 0 36 448 L 476 448 A 28.031 28.031 0 0 0 504 420 L 504 376 A 8 8 0 0 0 496 368 L 464 368 L 464 92 A 28.031 28.031 0 0 0 436 64 L 76 64 z M 76 80 L 436 80 A 12.01 12.01 0 0 1 448 92 L 448 368 L 64 368 L 64 92 A 12.01 12.01 0 0 1 76 80 z M 80 88 A 8 8 0 0 0 72 96 L 72 352 A 8 8 0 0 0 80 360 L 432 360 A 8 8 0 0 0 440 352 L 440 96 A 8 8 0 0 0 432 88 L 80 88 z M 88 104 L 248 104 L 248 216 L 88 216 L 88 104 z M 264 104 L 424 104 L 424 216 L 264 216 L 264 104 z M 112 120 A 8 8 0 0 0 104 128 L 104 192 A 8 8 0 0 0 112 200 A 8 8 0 0 0 120 192 L 120 176 L 140 176 A 28 28 0 0 0 140 120 L 112 120 z M 200 120 A 8 8 0 0 0 200 136 L 200 192 A 8 8 0 0 0 216 192 L 216 128 A 8 8 0 0 0 208 120 L 200 120 z M 288 120 A 8 8 0 0 0 280 128 L 280 192 A 8 8 0 0 0 288 200 A 8 8 0 0 0 296 192 L 296 176 L 316 176 A 28 28 0 0 0 316 120 L 288 120 z M 407.98438 120 L 359.98438 120.09375 A 8.000004 8.000004 0 0 0 360 136.09375 L 360.01562 136.09375 L 400 136.01562 L 400 147.31641 L 354.80078 186.01562 A 8 8 0 0 0 360 200.09375 L 360.01562 200.09375 L 408.01562 199.99805 A 8 8 0 0 0 408 184 L 407.98438 184 L 381.69531 184.05273 L 413.19922 157.07617 A 8 8 0 0 0 416 151 L 416 128 A 8 8 0 0 0 408 120 L 407.98438 120 z M 120 136 L 140 136 A 12 12 0 0 1 140 160 L 120 160 L 120 136 z M 296 136 L 316 136 A 12 12 0 0 1 316 160 L 296 160 L 296 136 z M 88 232 L 248 232 L 248 344 L 88 344 L 88 232 z M 264 232 L 424 232 L 424 344 L 264 344 L 264 232 z M 112 248 A 8 8 0 0 0 104 256 L 104 320 A 8 8 0 0 0 120 320 L 120 304 L 140 304 A 28 28 0 0 0 140 248 L 112 248 z M 288 248 A 8 8 0 0 0 280 256 L 280 320 A 8 8 0 0 0 296 320 L 296 304 L 316 304 A 28 28 0 0 0 316 248 L 288 248 z M 399.76758 248.00391 A 8 8 0 0 0 394.33594 250.34961 L 354.33594 290.44336 A 8.245 8.245 0 0 0 352 296.09375 A 8 8 0 0 0 360.49219 304.07812 C 362.44819 304.03613 377.233 304.01586 392 304.00586 L 392 320.00586 A 8 8 0 0 0 408 320.00586 L 408 304 A 8 8 0 0 0 408 288 L 408 256 A 8 8 0 0 0 399.76758 248.00391 z M 184 248.09375 A 8 8 0 0 0 184 264.09375 L 224.30078 264.09375 L 224.30078 280 L 208 280 A 8 8 0 0 0 208 296 L 224.30078 296 L 224.30078 312.09375 L 184 312.09375 A 8 8 0 0 0 184 328.09375 L 232.30078 328.09375 A 8 8 0 0 0 240.30078 320.09375 L 240.30078 256.09375 A 8 8 0 0 0 232.30078 248.09375 L 184 248.09375 z M 120 264 L 140 264 A 12 12 0 0 1 140 288 L 120 288 L 120 264 z M 296 264 L 316 264 A 12 12 0 0 1 316 288 L 296 288 L 296 264 z M 392 275.3457 L 392 288.00586 L 383.99219 288.01172 L 379.35742 288.01172 L 392 275.3457 z M 24 384 L 201.75 384 L 208.24023 409.93945 A 8 8 0 0 0 216 416 L 296 416 A 8 8 0 0 0 303.75977 409.93945 L 310.25 384 L 488 384 L 488 420 A 12.01 12.01 0 0 1 476 432 L 36 432 A 12.01 12.01 0 0 1 24 420 L 24 384 z M 218.25 384 L 293.75 384 L 289.75 400 L 222.25 400 L 218.25 384 z"/></svg>