<svg xmlns="http://www.w3.org/2000/svg"  viewBox="0 0 60 60" width="512px" height="512px"><path d="M 25.880859 0.0078125 C 25.751859 0.023203125 25.623656 0.0643125 25.503906 0.1328125 C 25.024906 0.4068125 24.858812 1.0170937 25.132812 1.4960938 L 28.277344 7 L 26 7 C 22.480447 7 19.567949 9.614028 19.080078 13 L 3.9941406 13 C 1.7911406 13 0 14.791141 0 16.994141 L 0 56.005859 C -5.9211895e-16 58.208859 1.7911406 60 3.9941406 60 L 56.005859 60 C 58.208859 60 60 58.208859 60 56.005859 L 60 16.994141 C 60 14.791141 58.208859 13 56.005859 13 L 40.919922 13 C 40.432051 9.614028 37.519553 7 34 7 L 31.722656 7 L 34.867188 1.4960938 C 35.141188 1.0170937 34.975094 0.4068125 34.496094 0.1328125 C 34.017094 -0.1411875 33.406813 0.02490625 33.132812 0.50390625 L 30 5.9863281 L 26.867188 0.50390625 C 26.662437 0.14465625 26.267859 -0.038359375 25.880859 0.0078125 z M 26 9 L 30 9 L 30.001953 9 L 34 9 C 36.415 9 38.435391 10.721 38.900391 13 L 21.099609 13 C 21.564609 10.721 23.585 9 26 9 z M 3.9941406 15 L 20 15 L 40 15 L 56.005859 15 C 57.105859 15 58 15.894141 58 16.994141 L 58 56.005859 C 58 57.105859 57.105859 58 56.005859 58 L 3.9941406 58 C 2.8941406 58 2 57.106859 2 56.005859 L 2 16.994141 C 2 15.894141 2.8941406 15 3.9941406 15 z M 8.4550781 17 C 5.9990781 17 4 18.999078 4 21.455078 L 4 51.544922 C 4 54.000922 5.9990781 56 8.4550781 56 L 41.544922 56 C 44.000922 56 46 54.000922 46 51.544922 L 46 21.455078 C 46 18.999078 44.001922 17 41.544922 17 L 8.4550781 17 z M 49 17 C 48.448 17 48 17.447 48 18 L 48 24 C 48 24.553 48.448 25 49 25 L 55 25 C 55.552 25 56 24.553 56 24 L 56 18 C 56 17.447 55.552 17 55 17 L 49 17 z M 8.4550781 19 L 24 19 L 24 54 L 8.4550781 54 C 7.1020781 54 6 52.898922 6 51.544922 L 6 21.455078 C 6 20.102078 7.1020781 19 8.4550781 19 z M 26 19 L 41.544922 19 C 42.897922 19 44 20.102078 44 21.455078 L 44 51.544922 C 44 52.898922 42.898922 54 41.544922 54 L 26 54 L 26 19 z M 50 19 L 51 19 L 51 21 C 51 21.553 51.448 22 52 22 C 52.552 22 53 21.553 53 21 L 53 19 L 54 19 L 54 23 L 50 23 L 50 19 z M 13 21 C 12.448 21 12 21.447 12 22 L 12 26 C 12 26.553 12.448 27 13 27 L 16 27 L 16 29 L 13 29 C 12.448 29 12 29.447 12 30 C 12 30.553 12.448 31 13 31 L 17 31 C 17.552 31 18 30.553 18 30 L 18 26 C 18 25.447 17.552 25 17 25 L 14 25 L 14 23 L 17 23 C 17.552 23 18 22.553 18 22 C 18 21.447 17.552 21 17 21 L 13 21 z M 32 21 C 31.448 21 31 21.447 31 22 C 31 22.553 31.448 23 32 23 L 35 23 L 35 25 L 32 25 C 31.862 25 31.730953 25.027578 31.611328 25.078125 C 31.252453 25.229766 31 25.58525 31 26 C 31 26.553 31.448 27 32 27 L 35 27 L 35 29 L 32 29 C 31.448 29 31 29.447 31 30 C 31 30.553 31.448 31 32 31 L 36 31 C 36.552 31 37 30.553 37 30 L 37 26 L 37 22 C 37 21.447 36.552 21 36 21 L 32 21 z M 49 28 C 48.448 28 48 28.447 48 29 C 48 29.553 48.448 30 49 30 L 55 30 C 55.552 30 56 29.553 56 29 C 56 28.447 55.552 28 55 28 L 49 28 z M 49 33 C 48.448 33 48 33.447 48 34 C 48 34.553 48.448 35 49 35 L 55 35 C 55.552 35 56 34.553 56 34 C 56 33.447 55.552 33 55 33 L 49 33 z M 41 35 C 40.448 35 40 35.447 40 36 L 40 43 C 40 43.553 40.448 44 41 44 C 41.552 44 42 43.553 42 43 L 42 36 C 42 35.447 41.552 35 41 35 z M 49 38 C 48.448 38 48 38.447 48 39 L 48 45 C 48 45.553 48.448 46 49 46 C 49.552 46 50 45.553 50 45 L 50 43 L 54 43 L 54 45 C 54 45.553 54.448 46 55 46 C 55.552 46 56 45.553 56 45 L 56 39 C 56 38.447 55.552 38 55 38 C 54.448 38 54 38.447 54 39 L 54 41 L 50 41 L 50 39 C 50 38.447 49.552 38 49 38 z M 9 42 C 8.448 42 8 42.447 8 43 L 8 50 C 8 50.553 8.448 51 9 51 C 9.552 51 10 50.553 10 50 L 10 43 C 10 42.447 9.552 42 9 42 z M 49 48 C 48.448 48 48 48.447 48 49 L 48 55 C 48 55.553 48.448 56 49 56 L 55 56 C 55.552 56 56 55.553 56 55 L 56 49 C 56 48.447 55.552 48 55 48 L 49 48 z M 50 50 L 54 50 L 54 54 L 50 54 L 50 50 z"/></svg>